# xmcd CD database file
#
# Track frame offsets:
#	150
#	25277
#	39117
#	86466
#	103146
#	117792
#	128242
#	153812
#
# Disc length: 2395 seconds
#
# Revision: 0
# Processed by: cddbd v1.5.1PL2 Copyright (c) Steve Scherf et al.
# Submitted via: CDex 1.51
#
DISCID=55095908
DTITLE=Eberhard Schoener - BALI AGÚNG
DYEAR=1975
DGENRE=Jazz
TTITLE0=Tjandra (der Mond)
TTITLE1=Rawana (der Dämonenkönig)
TTITLE2=Nadi (in Trance sein)
TTITLE3=Surija (die Sonne)
TTITLE4=Ramayana (Balinesisches Märchen)
TTITLE5=Ketjak - Rock
TTITLE6=Agúng Raka - Dalang (Agúng Raka der Schattenspieler)
TTITLE7=Gong - Gede (Orchester)
EXTD=YEAR: 1975
EXTT0=
EXTT1=
EXTT2=
EXTT3=
EXTT4=
EXTT5=
EXTT6=
EXTT7=
PLAYORDER=
